<svg xmlns="http://www.w3.org/2000/svg" xmlns:xlink="http://www.w3.org/1999/xlink" width="2000" zoomAndPan="magnify" viewBox="0 0 1500 599.999999" height="800" preserveAspectRatio="xMidYMid meet" version="1.2"><defs/><g id="5345489ff1"><g style="fill:#ffffff;fill-opacity:1;"><g transform="translate(10.800732, 419.970613)"><path style="stroke:none" d="M 211.96875 39.640625 C 215.519531 8.378906 225.175781 -27.832031 240.9375 -69 C 256.945312 -110.175781 280.960938 -160.625 312.984375 -220.34375 C 323.398438 -240.164062 332.171875 -257.195312 339.296875 -271.4375 C 346.410156 -285.914062 349.710938 -293.410156 349.203125 -293.921875 C 348.441406 -294.679688 345.898438 -293.285156 341.578125 -289.734375 C 337.253906 -286.171875 329.375 -278.289062 317.9375 -266.09375 C 311.84375 -259.488281 304.347656 -251.484375 295.453125 -242.078125 C 286.804688 -232.421875 276.382812 -221.113281 264.1875 -208.15625 C 248.9375 -191.125 235.46875 -176.507812 223.78125 -164.3125 C 212.34375 -152.113281 202.429688 -141.945312 194.046875 -133.8125 C 178.035156 -118.050781 166.085938 -108.007812 158.203125 -103.6875 C 150.078125 -99.375 142.835938 -98.101562 136.484375 -99.875 C 129.109375 -101.65625 124.40625 -106.992188 122.375 -115.890625 C 120.082031 -125.035156 120.335938 -138.503906 123.140625 -156.296875 C 127.453125 -182.984375 129.738281 -199.632812 130 -206.25 C 130.507812 -212.851562 129.617188 -215.394531 127.328125 -213.875 C 123.773438 -211.832031 114.117188 -196.835938 98.359375 -168.890625 C 82.597656 -141.179688 63.410156 -105.34375 40.796875 -61.375 C 29.097656 -38.25 18.550781 -18.425781 9.15625 -1.90625 C 0 14.613281 -4.957031 22.875 -5.71875 22.875 C -7.75 22.875 -8.765625 21.476562 -8.765625 18.6875 C -8.765625 16.644531 -8.257812 14.101562 -7.25 11.0625 C -4.957031 2.925781 1.394531 -12.957031 11.8125 -36.59375 C 25.539062 -67.851562 39.898438 -98.222656 54.890625 -127.703125 C 69.628906 -157.191406 83.101562 -182.609375 95.3125 -203.953125 C 102.164062 -215.390625 108.390625 -225.300781 113.984375 -233.6875 C 119.578125 -242.070312 124.28125 -248.425781 128.09375 -252.75 C 132.664062 -257.582031 137.75 -260.253906 143.34375 -260.765625 C 149.1875 -261.265625 153.890625 -259.484375 157.453125 -255.421875 C 159.992188 -252.117188 160.878906 -242.460938 160.109375 -226.453125 C 159.097656 -210.179688 156.429688 -190.738281 152.109375 -168.125 C 150.585938 -159.738281 149.695312 -152.875 149.4375 -147.53125 C 149.1875 -142.445312 149.566406 -139.269531 150.578125 -138 C 151.847656 -136.726562 158.457031 -141.6875 170.40625 -152.875 C 182.351562 -163.800781 199.253906 -180.445312 221.109375 -202.8125 C 258.472656 -241.445312 286.9375 -269.65625 306.5 -287.4375 C 325.820312 -305.226562 340.691406 -316.796875 351.109375 -322.140625 C 360.003906 -326.710938 365.847656 -328.867188 368.640625 -328.609375 C 371.691406 -328.609375 374.488281 -326.320312 377.03125 -321.75 C 377.789062 -319.96875 378.171875 -317.679688 378.171875 -314.890625 C 378.171875 -312.097656 377.789062 -308.921875 377.03125 -305.359375 C 375.507812 -297.734375 371.441406 -285.914062 364.828125 -269.90625 C 361.273438 -261.519531 356.828125 -251.609375 351.484375 -240.171875 C 346.398438 -228.734375 340.300781 -215.519531 333.1875 -200.53125 C 326.832031 -187.050781 320.988281 -174.210938 315.65625 -162.015625 C 310.0625 -150.078125 304.722656 -138.640625 299.640625 -127.703125 C 290.492188 -106.867188 281.851562 -86.796875 273.71875 -67.484375 C 265.582031 -47.910156 256.941406 -26.6875 247.796875 -3.8125 C 236.359375 24.144531 228.476562 42.570312 224.15625 51.46875 C 219.84375 60.101562 216.285156 64.421875 213.484375 64.421875 C 212.210938 64.421875 211.453125 62.515625 211.203125 58.703125 C 210.941406 54.640625 211.195312 48.285156 211.96875 39.640625 Z M 211.96875 39.640625 "/></g><g transform="translate(346.659745, 419.970613)"><path style="stroke:none" d="M 58.703125 -175.75 C 59.472656 -171.425781 59.726562 -165.960938 59.46875 -159.359375 C 59.21875 -152.742188 55.28125 -145.242188 47.65625 -136.859375 C 44.601562 -134.066406 41.929688 -131.648438 39.640625 -129.609375 C 37.097656 -127.835938 36.210938 -126.566406 36.984375 -125.796875 C 37.484375 -125.296875 39.132812 -125.296875 41.9375 -125.796875 C 44.476562 -126.304688 49.179688 -127.328125 56.046875 -128.859375 C 72.054688 -132.671875 84.378906 -134.578125 93.015625 -134.578125 C 101.398438 -134.316406 107.375 -132.28125 110.9375 -128.46875 C 115 -123.894531 117.03125 -118.6875 117.03125 -112.84375 C 116.78125 -106.738281 113.601562 -97.96875 107.5 -86.53125 C 104.195312 -80.4375 100.003906 -73.320312 94.921875 -65.1875 C 89.835938 -57.050781 83.738281 -47.519531 76.625 -36.59375 C 69.507812 -26.175781 63.664062 -16.898438 59.09375 -8.765625 C 54.519531 -0.628906 52.613281 3.816406 53.375 4.578125 C 54.644531 5.847656 62.90625 1.269531 78.15625 -9.15625 C 93.144531 -19.570312 110.679688 -32.40625 130.765625 -47.65625 C 146.773438 -59.601562 160.242188 -69.640625 171.171875 -77.765625 C 182.097656 -86.148438 190.992188 -92.882812 197.859375 -97.96875 C 211.078125 -107.632812 219.335938 -113.351562 222.640625 -115.125 C 225.679688 -116.90625 227.585938 -117.414062 228.359375 -116.65625 C 228.609375 -116.40625 228.734375 -116.148438 228.734375 -115.890625 C 228.734375 -115.128906 227.972656 -113.734375 226.453125 -111.703125 C 224.410156 -109.160156 221.613281 -105.851562 218.0625 -101.78125 C 211.195312 -94.414062 201.921875 -85.015625 190.234375 -73.578125 C 178.535156 -62.390625 166.335938 -50.953125 153.640625 -39.265625 C 140.671875 -27.578125 127.960938 -16.648438 115.515625 -6.484375 C 103.316406 3.429688 93.53125 10.675781 86.15625 15.25 C 78.53125 19.820312 72.050781 23.378906 66.71875 25.921875 C 61.375 28.710938 56.796875 30.742188 52.984375 32.015625 C 47.648438 34.054688 43.585938 35.078125 40.796875 35.078125 C 39.773438 35.078125 39.007812 34.945312 38.5 34.6875 C 35.707031 33.925781 33.675781 33.164062 32.40625 32.40625 C 27.320312 30.375 24.144531 26.5625 22.875 20.96875 C 21.601562 15.125 22.492188 8.644531 25.546875 1.53125 C 27.066406 -1.78125 31.257812 -9.15625 38.125 -20.59375 C 45.238281 -32.019531 53.117188 -44.34375 61.765625 -57.5625 C 70.148438 -70.519531 77.390625 -81.957031 83.484375 -91.875 C 89.585938 -101.789062 92.640625 -107.128906 92.640625 -107.890625 C 92.640625 -110.171875 89.71875 -111.0625 83.875 -110.5625 C 77.769531 -110.050781 69.890625 -108.394531 60.234375 -105.59375 C 55.660156 -104.070312 49.941406 -102.675781 43.078125 -101.40625 C 35.960938 -100.382812 29.863281 -99.75 24.78125 -99.5 C 16.90625 -99.25 11.441406 -99.628906 8.390625 -100.640625 C 5.335938 -101.660156 2.03125 -104.332031 -1.53125 -108.65625 C -6.613281 -114.5 -9.15625 -120.722656 -9.15625 -127.328125 L -9.15625 -127.703125 C -9.15625 -134.566406 -6.359375 -143.460938 -0.765625 -154.390625 C 5.078125 -166.335938 12.445312 -175.742188 21.34375 -182.609375 C 30.238281 -189.472656 38.117188 -192.90625 44.984375 -192.90625 C 49.046875 -192.90625 52.097656 -191 54.140625 -187.1875 C 56.421875 -183.625 57.941406 -179.8125 58.703125 -175.75 Z M 16.78125 -138.390625 C 17.28125 -137.878906 17.914062 -137.75 18.6875 -138 C 19.957031 -138 21.351562 -138.632812 22.875 -139.90625 C 25.414062 -141.9375 27.957031 -144.609375 30.5 -147.921875 C 33.550781 -151.984375 36.09375 -156.046875 38.125 -160.109375 C 39.132812 -162.648438 39.640625 -164.429688 39.640625 -165.453125 C 39.640625 -166.210938 39.390625 -166.59375 38.890625 -166.59375 L 38.5 -166.59375 C 35.707031 -166.59375 31.769531 -163.414062 26.6875 -157.0625 C 21.351562 -149.945312 18.050781 -143.722656 16.78125 -138.390625 Z M 16.78125 -138.390625 "/></g><g transform="translate(565.48276, 419.970613)"><path style="stroke:none" d="M 6.484375 -65.1875 C 1.140625 -69.757812 -2.164062 -73.570312 -3.4375 -76.625 C -4.445312 -79.414062 -4.953125 -83.863281 -4.953125 -89.96875 L -4.953125 -92.25 C -4.953125 -96.0625 -4.0625 -100.765625 -2.28125 -106.359375 C -0.757812 -112.203125 1.144531 -118.046875 3.4375 -123.890625 C 7.25 -132.785156 11.1875 -140.796875 15.25 -147.921875 C 19.0625 -154.015625 21.984375 -157.191406 24.015625 -157.453125 L 24.78125 -157.453125 C 25.789062 -156.941406 26.679688 -156.429688 27.453125 -155.921875 C 28.210938 -155.410156 28.59375 -154.898438 28.59375 -154.390625 C 28.59375 -154.140625 27.957031 -150.960938 26.6875 -144.859375 C 25.414062 -138.765625 23.890625 -131.523438 22.109375 -123.140625 C 18.296875 -105.597656 17.40625 -94.539062 19.4375 -89.96875 C 21.476562 -85.394531 28.085938 -83.109375 39.265625 -83.109375 C 43.078125 -83.109375 53.117188 -84.378906 69.390625 -86.921875 C 85.398438 -89.710938 102.804688 -92.890625 121.609375 -96.453125 C 161.003906 -104.328125 188.707031 -109.410156 204.71875 -111.703125 C 220.726562 -113.984375 228.734375 -113.851562 228.734375 -111.3125 C 228.734375 -110.300781 227.207031 -108.90625 224.15625 -107.125 C 221.363281 -105.34375 217.550781 -103.4375 212.71875 -101.40625 C 203.570312 -97.34375 191.628906 -92.894531 176.890625 -88.0625 C 161.890625 -83.226562 146.515625 -78.65625 130.765625 -74.34375 C 114.492188 -69.769531 98.734375 -65.828125 83.484375 -62.515625 C 68.492188 -59.210938 56.421875 -57.304688 47.265625 -56.796875 C 38.878906 -56.296875 32.398438 -56.046875 27.828125 -56.046875 C 24.273438 -56.046875 21.734375 -56.171875 20.203125 -56.421875 C 16.898438 -57.179688 12.328125 -60.101562 6.484375 -65.1875 Z M 31.265625 -180.703125 C 30.242188 -182.484375 29.734375 -184.894531 29.734375 -187.9375 C 29.734375 -190.988281 30.242188 -194.800781 31.265625 -199.375 C 32.785156 -208.78125 35.070312 -215.132812 38.125 -218.4375 C 40.664062 -221.738281 43.585938 -223.390625 46.890625 -223.390625 C 48.921875 -223.390625 51.207031 -222.628906 53.75 -221.109375 C 58.320312 -218.316406 60.609375 -214.378906 60.609375 -209.296875 C 60.609375 -207.765625 60.359375 -206.238281 59.859375 -204.71875 C 58.835938 -200.144531 55.40625 -194.046875 49.5625 -186.421875 C 43.71875 -179.046875 39.648438 -175.359375 37.359375 -175.359375 C 36.597656 -175.359375 35.582031 -175.867188 34.3125 -176.890625 C 33.039062 -177.898438 32.023438 -179.171875 31.265625 -180.703125 Z M 31.265625 -180.703125 "/></g></g><g style="fill:#ffffff;fill-opacity:1;"><g transform="translate(784.30579, 419.970613)"><path style="stroke:none" d="M -8.765625 -54.515625 C -10.296875 -56.035156 -11.0625 -59.46875 -11.0625 -64.8125 C -11.0625 -67.601562 -10.804688 -70.90625 -10.296875 -74.71875 C -9.273438 -85.90625 -7.367188 -97.34375 -4.578125 -109.03125 C -2.285156 -118.4375 0.253906 -126.695312 3.046875 -133.8125 C 5.847656 -140.925781 8.390625 -144.484375 10.671875 -144.484375 C 13.472656 -144.484375 15 -142.320312 15.25 -138 C 15.25 -133.9375 14.234375 -122.753906 12.203125 -104.453125 C 11.691406 -99.628906 10.800781 -92.382812 9.53125 -82.71875 C 18.175781 -91.875 31.007812 -105.347656 48.03125 -123.140625 C 70.65625 -147.023438 86.921875 -162.523438 96.828125 -169.640625 C 103.441406 -174.472656 109.414062 -176.890625 114.75 -176.890625 C 117.039062 -176.890625 119.070312 -176.507812 120.84375 -175.75 C 124.65625 -173.96875 127.070312 -171.929688 128.09375 -169.640625 C 129.101562 -167.097656 129.609375 -162.648438 129.609375 -156.296875 C 129.609375 -151.984375 129.101562 -146.394531 128.09375 -139.53125 C 127.070312 -132.664062 125.800781 -126.4375 124.28125 -120.84375 C 120.71875 -107.632812 118.9375 -97.085938 118.9375 -89.203125 C 119.195312 -81.066406 121.101562 -76.363281 124.65625 -75.09375 C 133.8125 -74.082031 146.394531 -77.007812 162.40625 -83.875 C 178.414062 -90.988281 194.804688 -97.59375 211.578125 -103.6875 C 220.722656 -107 229.617188 -109.671875 238.265625 -111.703125 C 246.910156 -113.734375 254.914062 -114.492188 262.28125 -113.984375 C 259.738281 -111.703125 250.335938 -106.617188 234.078125 -98.734375 C 218.066406 -90.859375 200.019531 -81.960938 179.9375 -72.046875 C 161.132812 -63.148438 145.757812 -57.429688 133.8125 -54.890625 C 121.613281 -52.609375 112.335938 -54.644531 105.984375 -61 C 100.640625 -66.332031 97.84375 -73.191406 97.59375 -81.578125 C 97.082031 -89.960938 98.863281 -103.179688 102.9375 -121.234375 C 104.457031 -128.347656 105.597656 -134.570312 106.359375 -139.90625 C 107.117188 -145.25 107.117188 -148.300781 106.359375 -149.0625 C 105.347656 -150.070312 98.359375 -144.222656 85.390625 -131.515625 C 72.679688 -118.816406 54.640625 -99.882812 31.265625 -74.71875 C 21.609375 -64.039062 13.472656 -57.050781 6.859375 -53.75 C 3.804688 -52.226562 1.140625 -51.46875 -1.140625 -51.46875 C -4.191406 -51.46875 -6.734375 -52.484375 -8.765625 -54.515625 Z M -8.765625 -54.515625 "/></g><g transform="translate(1033.626786, 419.970613)"><path style="stroke:none" d="M 130 -147.15625 C 134.320312 -144.613281 136.734375 -141.4375 137.234375 -137.625 C 137.492188 -133.8125 135.84375 -127.078125 132.28125 -117.421875 C 127.457031 -103.953125 124.535156 -94.421875 123.515625 -88.828125 C 122.503906 -82.984375 123.015625 -78.660156 125.046875 -75.859375 C 128.085938 -71.796875 137.234375 -71.035156 152.484375 -73.578125 C 167.734375 -76.117188 190.609375 -82.21875 221.109375 -91.875 C 236.109375 -96.957031 250.34375 -101.40625 263.8125 -105.21875 C 277.28125 -108.78125 285.789062 -110.8125 289.34375 -111.3125 C 292.144531 -111.570312 296.46875 -112.082031 302.3125 -112.84375 C 300.789062 -111.570312 298.375 -109.539062 295.0625 -106.75 C 292.019531 -103.945312 287.570312 -100.769531 281.71875 -97.21875 C 275.625 -93.90625 268.765625 -90.34375 261.140625 -86.53125 C 246.910156 -79.414062 231.15625 -72.554688 213.875 -65.953125 C 196.582031 -59.347656 181.585938 -54.519531 168.890625 -51.46875 C 155.160156 -48.164062 144.992188 -46.382812 138.390625 -46.125 L 137.234375 -46.125 C 130.878906 -46.125 124.910156 -47.394531 119.328125 -49.9375 C 110.171875 -54.007812 104.195312 -59.726562 101.40625 -67.09375 C 98.613281 -74.71875 98.867188 -84.882812 102.171875 -97.59375 C 103.441406 -101.914062 104.710938 -105.851562 105.984375 -109.40625 C 107.503906 -112.71875 108.140625 -114.753906 107.890625 -115.515625 C 107.628906 -116.273438 104.578125 -114.875 98.734375 -111.3125 C 93.140625 -108.007812 86.40625 -103.945312 78.53125 -99.125 C 51.59375 -82.601562 30.117188 -72.304688 14.109375 -68.234375 C -1.898438 -64.171875 -12.320312 -65.828125 -17.15625 -73.203125 C -19.1875 -76.242188 -20.203125 -78.65625 -20.203125 -80.4375 L -20.203125 -80.8125 C -20.203125 -82.59375 -19.3125 -85.644531 -17.53125 -89.96875 C -15.25 -95.8125 -10.421875 -101.910156 -3.046875 -108.265625 C 4.316406 -114.617188 12.703125 -120.082031 22.109375 -124.65625 C 27.191406 -127.195312 32.53125 -128.976562 38.125 -130 C 43.71875 -130.757812 51.976562 -131.265625 62.90625 -131.515625 C 75.351562 -131.773438 83.863281 -132.410156 88.4375 -133.421875 C 93.269531 -134.441406 99.5 -136.984375 107.125 -141.046875 C 112.207031 -143.847656 116.273438 -145.753906 119.328125 -146.765625 C 121.867188 -147.785156 124.023438 -148.296875 125.796875 -148.296875 L 126.1875 -148.296875 C 126.945312 -148.296875 127.582031 -148.171875 128.09375 -147.921875 C 128.601562 -147.660156 129.238281 -147.40625 130 -147.15625 Z M 56.421875 -117.421875 C 48.285156 -115.890625 39.898438 -113.601562 31.265625 -110.5625 C 22.878906 -107.507812 15.632812 -103.3125 9.53125 -97.96875 C 1.90625 -91.363281 -1.90625 -87.046875 -1.90625 -85.015625 C -1.65625 -84.503906 -1.144531 -84.125 -0.375 -83.875 C -0.125 -83.613281 0.253906 -83.484375 0.765625 -83.484375 C 4.828125 -83.742188 13.722656 -87.175781 27.453125 -93.78125 C 43.460938 -101.40625 54.898438 -107.378906 61.765625 -111.703125 C 65.578125 -113.984375 67.484375 -115.632812 67.484375 -116.65625 C 67.222656 -117.675781 65.695312 -118.1875 62.90625 -118.1875 C 62.144531 -118.1875 61.253906 -118.054688 60.234375 -117.796875 C 58.960938 -117.796875 57.691406 -117.671875 56.421875 -117.421875 Z M 56.421875 -117.421875 "/></g></g><g style="fill:#ffffff;fill-opacity:1;"><g transform="translate(1322.595117, 419.970613)"><path style="stroke:none" d="M 156.296875 -299.265625 C 154.523438 -292.648438 151.734375 -285.28125 147.921875 -277.15625 C 144.109375 -269.019531 139.660156 -260.503906 134.578125 -251.609375 C 124.921875 -234.835938 113.351562 -217.425781 99.875 -199.375 C 86.40625 -181.332031 72.175781 -164.6875 57.1875 -149.4375 C 43.71875 -135.457031 34.3125 -125.039062 28.96875 -118.1875 C 23.882812 -111.0625 20.070312 -103.816406 17.53125 -96.453125 C 12.195312 -81.453125 9.148438 -70.269531 8.390625 -62.90625 C 7.367188 -55.53125 8.382812 -51.335938 11.4375 -50.328125 C 12.957031 -49.816406 18.421875 -51.59375 27.828125 -55.65625 C 37.234375 -59.976562 48.414062 -65.695312 61.375 -72.8125 C 87.300781 -87.300781 109.03125 -97.847656 126.5625 -104.453125 C 144.101562 -111.066406 157.957031 -113.988281 168.125 -113.21875 C 173.457031 -112.71875 176.125 -111.957031 176.125 -110.9375 C 175.875 -109.664062 174.347656 -108.140625 171.546875 -106.359375 C 168.753906 -104.578125 165.328125 -102.671875 161.265625 -100.640625 C 156.941406 -98.359375 153.765625 -96.582031 151.734375 -95.3125 C 143.335938 -90.726562 132.535156 -84.625 119.328125 -77 C 106.359375 -69.382812 94.921875 -62.523438 85.015625 -56.421875 C 75.097656 -50.316406 65.3125 -44.472656 55.65625 -38.890625 C 46 -33.296875 39.265625 -29.609375 35.453125 -27.828125 C 26.304688 -23.765625 17.789062 -21.734375 9.90625 -21.734375 L 8.765625 -21.734375 C 0.378906 -21.984375 -5.972656 -24.394531 -10.296875 -28.96875 C -14.867188 -33.800781 -17.15625 -41.171875 -17.15625 -51.078125 C -17.15625 -58.203125 -15.882812 -66.71875 -13.34375 -76.625 C -7.5 -99.75 5.207031 -130.628906 24.78125 -169.265625 C 39.769531 -198.742188 54.765625 -225.046875 69.765625 -248.171875 C 84.753906 -271.554688 98.351562 -289.859375 110.5625 -303.078125 C 117.164062 -310.191406 123.265625 -315.78125 128.859375 -319.84375 C 134.191406 -323.65625 138.890625 -325.5625 142.953125 -325.5625 C 149.816406 -325.5625 154.394531 -323.398438 156.6875 -319.078125 C 158.71875 -314.765625 158.585938 -308.160156 156.296875 -299.265625 Z M 61 -198.234375 C 56.425781 -189.597656 52.484375 -181.71875 49.171875 -174.59375 C 45.867188 -167.476562 44.21875 -163.160156 44.21875 -161.640625 C 44.21875 -160.878906 44.597656 -160.5 45.359375 -160.5 C 47.140625 -160.5 51.71875 -164.5625 59.09375 -172.6875 C 68.75 -183.625 79.421875 -197.476562 91.109375 -214.25 C 95.679688 -220.601562 100.128906 -227.210938 104.453125 -234.078125 C 108.773438 -240.929688 112.84375 -247.664062 116.65625 -254.28125 C 123.519531 -266.476562 128.984375 -277.148438 133.046875 -286.296875 C 135.585938 -292.648438 136.859375 -296.972656 136.859375 -299.265625 C 136.859375 -300.273438 136.601562 -300.910156 136.09375 -301.171875 L 134.953125 -301.171875 C 133.171875 -301.171875 130.753906 -299.769531 127.703125 -296.96875 C 124.398438 -294.175781 120.71875 -290.238281 116.65625 -285.15625 C 108.78125 -275.75 99.882812 -263.421875 89.96875 -248.171875 C 80.050781 -232.671875 70.394531 -216.023438 61 -198.234375 Z M 61 -198.234375 "/></g></g></g></svg>